<mxfile host="app.diagrams.net" agent="Mozilla/5.0 (Windows NT 10.0; Win64; x64) AppleWebKit/537.36 (KHTML, like Gecko) Chrome/129.0.0.0 Safari/537.36" version="24.7.17">
  <diagram name="Página-1" id="1N1O4vxj1e2g-ZhYficx">
    <mxGraphModel grid="1" page="1" gridSize="10" guides="1" tooltips="1" connect="1" arrows="1" fold="1" pageScale="1" pageWidth="827" pageHeight="1169" math="0" shadow="0">
      <root>
        <mxCell id="0" />
        <mxCell id="1" parent="0" />
        <mxCell id="JcfTTWuU4UAbDxO8ckeF-8" style="edgeStyle=orthogonalEdgeStyle;rounded=0;orthogonalLoop=1;jettySize=auto;html=1;exitX=0.5;exitY=0.5;exitDx=0;exitDy=0;exitPerimeter=0;entryX=0;entryY=0.5;entryDx=0;entryDy=0;" edge="1" parent="1" source="JcfTTWuU4UAbDxO8ckeF-1" target="JcfTTWuU4UAbDxO8ckeF-3">
          <mxGeometry relative="1" as="geometry" />
        </mxCell>
        <mxCell id="JcfTTWuU4UAbDxO8ckeF-9" style="edgeStyle=orthogonalEdgeStyle;rounded=0;orthogonalLoop=1;jettySize=auto;html=1;exitX=0.5;exitY=0.5;exitDx=0;exitDy=0;exitPerimeter=0;entryX=0;entryY=0.5;entryDx=0;entryDy=0;" edge="1" parent="1" source="JcfTTWuU4UAbDxO8ckeF-1" target="JcfTTWuU4UAbDxO8ckeF-5">
          <mxGeometry relative="1" as="geometry" />
        </mxCell>
        <mxCell id="JcfTTWuU4UAbDxO8ckeF-1" value="Actor" style="shape=umlActor;verticalLabelPosition=bottom;verticalAlign=top;html=1;outlineConnect=0;fillColor=#B9E0A5;" vertex="1" parent="1">
          <mxGeometry x="60" y="230" width="30" height="60" as="geometry" />
        </mxCell>
        <mxCell id="JcfTTWuU4UAbDxO8ckeF-2" value="" style="swimlane;startSize=0;" vertex="1" parent="1">
          <mxGeometry x="110" y="90" width="460" height="370" as="geometry" />
        </mxCell>
        <mxCell id="JcfTTWuU4UAbDxO8ckeF-10" style="edgeStyle=orthogonalEdgeStyle;rounded=0;orthogonalLoop=1;jettySize=auto;html=1;exitX=1;exitY=0.5;exitDx=0;exitDy=0;" edge="1" parent="JcfTTWuU4UAbDxO8ckeF-2" source="JcfTTWuU4UAbDxO8ckeF-3" target="JcfTTWuU4UAbDxO8ckeF-4">
          <mxGeometry relative="1" as="geometry" />
        </mxCell>
        <mxCell id="JcfTTWuU4UAbDxO8ckeF-3" value="Calcular salario&amp;nbsp;" style="ellipse;whiteSpace=wrap;html=1;fillColor=#B9E0A5;" vertex="1" parent="JcfTTWuU4UAbDxO8ckeF-2">
          <mxGeometry x="60" y="40" width="120" height="80" as="geometry" />
        </mxCell>
        <mxCell id="JcfTTWuU4UAbDxO8ckeF-4" value="Resultado" style="ellipse;whiteSpace=wrap;html=1;fillColor=#E6D0DE;" vertex="1" parent="JcfTTWuU4UAbDxO8ckeF-2">
          <mxGeometry x="260" y="40" width="120" height="80" as="geometry" />
        </mxCell>
        <mxCell id="JcfTTWuU4UAbDxO8ckeF-11" style="edgeStyle=orthogonalEdgeStyle;rounded=0;orthogonalLoop=1;jettySize=auto;html=1;exitX=1;exitY=0.5;exitDx=0;exitDy=0;entryX=0;entryY=0.5;entryDx=0;entryDy=0;" edge="1" parent="JcfTTWuU4UAbDxO8ckeF-2" source="JcfTTWuU4UAbDxO8ckeF-5" target="JcfTTWuU4UAbDxO8ckeF-6">
          <mxGeometry relative="1" as="geometry" />
        </mxCell>
        <mxCell id="JcfTTWuU4UAbDxO8ckeF-5" value="Evaluación de desempeño" style="ellipse;whiteSpace=wrap;html=1;fillColor=#B9E0A5;" vertex="1" parent="JcfTTWuU4UAbDxO8ckeF-2">
          <mxGeometry x="60" y="230" width="120" height="80" as="geometry" />
        </mxCell>
        <mxCell id="JcfTTWuU4UAbDxO8ckeF-6" value="Guardado" style="ellipse;whiteSpace=wrap;html=1;fillColor=#E6D0DE;" vertex="1" parent="JcfTTWuU4UAbDxO8ckeF-2">
          <mxGeometry x="260" y="230" width="120" height="80" as="geometry" />
        </mxCell>
        <mxCell id="JcfTTWuU4UAbDxO8ckeF-13" style="edgeStyle=orthogonalEdgeStyle;rounded=0;orthogonalLoop=1;jettySize=auto;html=1;exitX=0.5;exitY=0.5;exitDx=0;exitDy=0;exitPerimeter=0;entryX=1;entryY=0.5;entryDx=0;entryDy=0;" edge="1" parent="1" source="JcfTTWuU4UAbDxO8ckeF-12" target="JcfTTWuU4UAbDxO8ckeF-4">
          <mxGeometry relative="1" as="geometry" />
        </mxCell>
        <mxCell id="JcfTTWuU4UAbDxO8ckeF-14" style="edgeStyle=orthogonalEdgeStyle;rounded=0;orthogonalLoop=1;jettySize=auto;html=1;exitX=0.5;exitY=0.5;exitDx=0;exitDy=0;exitPerimeter=0;entryX=1;entryY=0.5;entryDx=0;entryDy=0;" edge="1" parent="1" source="JcfTTWuU4UAbDxO8ckeF-12" target="JcfTTWuU4UAbDxO8ckeF-6">
          <mxGeometry relative="1" as="geometry" />
        </mxCell>
        <mxCell id="JcfTTWuU4UAbDxO8ckeF-12" value="Actor" style="shape=umlActor;verticalLabelPosition=bottom;verticalAlign=top;html=1;outlineConnect=0;fillColor=#E6D0DE;" vertex="1" parent="1">
          <mxGeometry x="590" y="230" width="30" height="60" as="geometry" />
        </mxCell>
        <mxCell id="JcfTTWuU4UAbDxO8ckeF-15" value="&lt;font style=&quot;font-size: 24px;&quot;&gt;RRHH&lt;/font&gt;" style="rounded=0;whiteSpace=wrap;html=1;" vertex="1" parent="1">
          <mxGeometry x="110" y="30" width="460" height="60" as="geometry" />
        </mxCell>
      </root>
    </mxGraphModel>
  </diagram>
</mxfile>
